<?xml version="1.0" encoding="UTF-8" standalone="no"?>
<svg
   xmlns:dc="http://purl.org/dc/elements/1.1/"
   xmlns:cc="http://creativecommons.org/ns#"
   xmlns:rdf="http://www.w3.org/1999/02/22-rdf-syntax-ns#"
   xmlns:svg="http://www.w3.org/2000/svg"
   xmlns="http://www.w3.org/2000/svg"
   id="svg877"
   style="clip-rule:evenodd;fill-rule:evenodd;stroke-linejoin:round;stroke-miterlimit:2"
   xml:space="preserve"
   version="1.1"
   viewBox="0 0 136.58875 195.36192"
   height="195.36192"
   width="136.58875"><metadata
     id="metadata883"><rdf:RDF><cc:Work
         rdf:about=""><dc:format>image/svg+xml</dc:format><dc:type
           rdf:resource="http://purl.org/dc/dcmitype/StillImage" /><dc:title></dc:title></cc:Work></rdf:RDF></metadata><defs
     id="defs881" /><g
     transform="translate(-23.192397,-20.083676)"
     id="g875"><g
       transform="matrix(-0.0705531,0,0,0.06251032,165.73937,13.626631)"
       id="layer5-2"
       style="clip-rule:evenodd;display:inline;fill-rule:evenodd;stroke:#37895f;stroke-width:28.45598412;stroke-linejoin:round;stroke-miterlimit:4;stroke-dasharray:none;stroke-opacity:1"><path
         d="m 1835.375,2963.5 -39.407,154.75 c -3.684,7.896 3.7,31.571 1.594,35.782 -2.106,4.21 -5.808,17.893 -5.281,30 l 78.8124,18.9669 c 11.3065,-40.6747 54.8235,-270.394 72.0936,-362.2329 l -35.656,-4.61 80.063,-2179.031 11.031,-504.438 -70.985,-2.68156 -8.421,251.15056 -92.688,-0.5 c 0.756,-7.33 6.873,-9.56 7.813,-17.531 h 0.125 c -0.018,-0.177 -0.03,-0.36 -0.063,-0.531 0.03,-0.342 0.052,-0.668 0.063,-1.032 -23.3454,-55.71495 24.5455,-137.06537 -16.313,-142.656 -44.2389,-4.7631 -2.8959,106.0818 -22.375,141.063 0,0.98 0.053,1.87 0.157,2.718 v 0.157 h 0.03 c 1.026,7.899 6.076,10.603 6.376,17.687 l -79.438,-0.437 0.094,-2.438 h -0.156 c 0.654,-7.507 6.863,-9.7 7.812,-17.75 h 0.125 c -0.019,-0.185 -0.028,-0.351 -0.062,-0.531 0.03,-0.342 0.052,-0.668 0.062,-1.031 -24.7836,-60.34055 28.1959,-136.92097 -16.312,-142.657 -46.5214,-1.98774 -2.8322,106.03235 -22.375,141.063 0,1.005 0.079,1.915 0.187,2.781 v 0.094 c 1.056,8.142 6.407,10.754 6.407,18.344 h 0.125 v 2 l -79.563,-0.407 -0.105,-8.041 c 0.313,-3.941 6.859,-7.304 7.824,-15.49 h 0.125 c -0.018,-0.177 -0.031,-0.36 -0.063,-0.531 0.03,-0.342 0.052,-0.668 0.063,-1.031 -22.4357,-52.49624 21.6155,-134.60587 -16.313,-142.657 -45.2105,-5.35129 -2.6132,105.57431 -22.375,141.063 0,0.98 0.084,1.87 0.188,2.719 v 0.156 h 0.031 c 1.044,8.049 6.257,10.7 6.375,18.094 h -0.031 l 0.094,5.593 -79.375,-0.437 -0.281,-5.625 h 0.03 c 0.472,-7.82 6.91,-9.94 7.876,-18.125 h 0.125 c -0.02,-0.185 -0.028,-0.352 -0.062,-0.531 0.03,-0.342 0.052,-0.668 0.062,-1.032 -22.5088,-52.47317 21.609,-134.59717 -16.313,-142.656 -43.9083,-8.43289 -2.6524,105.59362 -22.375,141.063 0,0.98 0.053,1.87 0.156,2.718 v 0.157 h 0.031 c 1.057,8.14 6.375,10.754 6.375,18.343 h 0.094 v 5.47 l -79.656,-0.345 v -4.75 c 0.471,-7.818 6.909,-9.91 7.875,-18.093 h 0.125 c -0.018,-0.177 -0.03,-0.36 -0.062,-0.532 0.03,-0.345 0.052,-0.694 0.062,-1.062 -22.5183,-52.46013 21.617,-134.56557 -16.312,-142.625 -41.8634,-3.84527 -2.6126,105.57057 -22.375,141.062 0,0.98 0.053,1.87 0.156,2.72 v 0.124 h 0.031 c 1.023,7.976 6.138,10.641 6.375,17.844 h -0.062 v 5.187 l -79.375,-0.437 -0.094,-4.844 c 0.47,-7.81 6.866,-9.933 7.844,-18.094 h 0.125 c -0.018,-0.176 -0.031,-0.36 -0.062,-0.53 0.03,-0.353 0.052,-0.689 0.062,-1.063 -22.4405,-52.48517 21.5784,-134.60718 -16.312,-142.657 -44.7496,-3.34272 -3.9043,107.95218 -22.376,141.063 0,1.011 0.078,1.941 0.188,2.812 v 0.063 c 1.052,8.152 6.406,10.75 6.406,18.344 H 1284 l 0.094,4.78 -79.656,-0.437 -0.282,-4.718 h 0.25 c 0.471,-7.82 6.879,-9.94 7.844,-18.125 h 0.125 c -0.019,-0.186 -0.028,-0.352 -0.062,-0.532 0.03,-0.342 0.052,-0.667 0.062,-1.03 -22.4356,-52.49583 21.6163,-134.60564 -16.312,-142.657 -49.2709,-9.17008 -2.5999,105.61554 -22.375,141.062 0,1.017 0.077,1.938 0.187,2.813 v 0.062 c 1.056,8.142 6.406,10.754 6.406,18.344 h 0.157 l 0.094,4.656 -79.75,-0.437 -0.188,-3.813 h 0.125 c 0.471,-7.818 6.909,-9.94 7.875,-18.125 h 0.125 c -0.018,-0.176 -0.03,-0.36 -0.063,-0.53 0.03,-0.347 0.052,-0.695 0.063,-1.063 -22.5142,-52.45181 21.6157,-134.56507 -16.313,-142.625 -37.6807,-1.94163 -2.5668,102.81009 -22.375,141.062 0,0.98 0.054,1.87 0.157,2.719 v 0.156 h 0.031 c 1.056,8.141 6.375,10.755 6.375,18.344 h 0.062 l -0.344,3.75 -79.28,-0.406 -0.188,-3.97 h 0.187 c 0.471,-7.818 6.909,-9.909 7.875,-18.093 h 0.125 c -0.018,-0.177 -0.03,-0.36 -0.062,-0.531 0.03,-0.346 0.052,-0.695 0.062,-1.063 -22.50649,-52.47142 21.6069,-134.59179 -16.312,-142.656 -40.5219,-2.31469 -2.60811,105.59376 -22.375,141.094 0,0.986 0.051,1.866 0.156,2.719 -0.003,0.042 0.002,0.082 0,0.125 h 0.031 c 1.052,8.15 6.375,10.75 6.375,18.343 h 0.125 l -0.187,3.875 -79.47,-0.406 v -3.719 c 0.472,-7.819 6.88,-9.939 7.845,-18.125 h 0.125 c -0.019,-0.176 -0.031,-0.36 -0.063,-0.53 0.03,-0.343 0.052,-0.668 0.063,-1.032 -22.44184,-52.48802 21.58054,-134.61186 -16.313,-142.656 -37.81984,-6.88798 -2.61134,105.57141 -22.375,141.062 0,1.005 0.08,1.915 0.188,2.781 -0.002,0.032 0.002,0.062 0,0.094 1.055,8.142 6.406,10.754 6.406,18.344 l -0.25,3.656 -79.094,-0.437 -0.437,-4.5 h 0.218 c 0.47,-7.81 6.867,-9.933 7.844,-18.094 h 0.125 c -0.018,-0.177 -0.03,-0.36 -0.062,-0.531 0.03,-0.352 0.052,-0.688 0.062,-1.063 -22.43911,-52.48445 21.5779,-134.60727 -16.312,-142.657 -45.22686,-9.16858 -2.60074,105.61562 -22.375,141.063 0,1.011 0.077,1.942 0.187,2.813 v 0.062 c 1.052,8.153 6.406,10.75 6.406,18.344 h 0.063 l -0.094,4.438 -79.625,-0.438 -0.031,-2.156 H 686 c 0.47,-7.82 6.91,-9.94 7.875,-18.125 H 694 c -0.016,-0.154 -0.068,-0.288 -0.094,-0.438 0.034,-0.371 0.083,-0.727 0.094,-1.125 -22.51079,-52.49246 21.60561,-134.59988 -16.343,-142.656 -46.74783,-4.05575 -0.86792,102.43831 -22.345,141.063 0,0.98 0.053,1.87 0.157,2.718 -0.004,0.053 0.003,0.104 0,0.157 h 0.03 c 1.037,7.987 6.15,10.672 6.345,17.937 h -0.125 l -0.032,2.5 -79.375,-0.437 v -0.813 c 0.471,-7.819 6.91,-9.94 7.875,-18.125 h 0.125 c -0.019,-0.185 -0.028,-0.352 -0.062,-0.531 0.03,-0.342 0.052,-0.668 0.062,-1.031 -22.50461,-52.47395 21.60732,-134.59882 -16.313,-142.657 -41.18118,-3.86978 -2.65022,105.59229 -22.375,141.063 0,0.98 0.054,1.87 0.157,2.719 -0.004,0.052 0.003,0.103 0,0.156 h 0.031 c 1.057,8.14 6.375,10.754 6.375,18.344 h 0.032 v 0.75 l -79.938,-0.438 c 10.56986,-24.37473 -17.92506,-32.94422 8.281,-20.687 0.03,-0.342 0.053,-0.668 0.063,-1.032 -22.43193,-52.45926 21.55863,-134.60107 -16.313,-142.656 -41.87727,-6.1412 -2.59917,105.61301 -22.375,141.063 0,10.527 6.594,12.796 6.594,21.218 l -0.25,1.97 L 398,392.969 c 0.826,-37.814 1.471,-63.335 1.75,-67.657 1.489,-23.076 -9.687,-29.027 -9.687,-40.937 -0.745,-8.933 5.198,-14.148 6.687,-37.969 1.488,-23.8 -18.242,-49.672 -21.5,-86.5 -12.69987,-73.339668 -40.81976,-11.72909 -43.125,1.188 -2.105,39.477 -26.3,47.905 -28.406,74.75 -1.73,22.065 5.25,33.68 5.25,46.312 0,12.367 -10.044,31.177 -10.469,31.969 v 0.031 l -0.062,0.125 -5.157,295.46381 -22.187,1215.44219 c -1.116,68.768 -1.758,114.453 -1.594,118.72 1.053,27.37 -24.207,49.996 -26.312,80 l -5.532,56.875 -6.625,424.688 c -1.782,118.7 -3.7,247.58 -3.75,250.875 -35.625,30.524 -64.459,55.866 -69.375,61.875 -14.212,17.37 -16.312,37.375 -16.312,37.375 -22.711,19.447 -31.587,73.67 -34.219,102.093 l 60,15.547 312.156,-310.297 c -9.474,-28.424 -26.328,-32.632 -34.75,-30 -15.162,-3.869 -38.472,-9.757 -54.218,-12.656 -0.754,0.342 -5.134,3.773 -12,9.313 0.64,-24.376 1.265,-47.794 2.656,-101.782 l 1460.07,199.86 z M 383.938,2420.439 c 1.48,-58.568 2.978,-119.03 4.375,-177.25 247.814,29.571 1459.144,172.399 1462.125,172.75 l -5.177,193.2 z M 1891.6571,1213.7291 386.313,1165.2364 c 2.851,-156.098 5.64,-468.0644 7.937,-586.7664 l 1518.25,26.625 z m -1511.17374,22.0722 c 210.555,13.477 1508.20484,51.585 1508.20484,51.585 l -7.0952,256.3627 -11.218,341.031 -1497.656,-117.375 c 1.463,-84.787 5.51336,-404.8637 7.76436,-531.6037 z M 371.594,1833.405 c 383.067,31.277 1338.424,108.43 1496.468,121.188 L 1855.1091,2271.63 391.125,2122 l 1.906,-138.906 c 4.58,-17.091 -23.062,-29.788 -23.062,-51.375 0,-3.066 0.673,-42.427 1.625,-98.313 z"
         id="path5622-5-1"
         style="display:inline;fill:#a1bc95;fill-opacity:1;stroke:#37895f;stroke-width:42.68397522;stroke-linecap:butt;stroke-linejoin:miter;stroke-miterlimit:4;stroke-dasharray:none;stroke-opacity:1" /></g><path
       style="clip-rule:evenodd;display:inline;fill:#ffffff;fill-opacity:1;fill-rule:evenodd;stroke:#37895f;stroke-width:2.76452947;stroke-linecap:butt;stroke-linejoin:miter;stroke-miterlimit:4;stroke-dasharray:none;stroke-opacity:1"
       id="path5342-0"
       d="M 48.05001,159.54466 45.45904,85.349027 c 3.46363,-1.274294 7.6534,-1.387437 10.8824,-1.094715 2.60801,0.659535 4.81432,1.227612 7.4149,1.84154 2.7582,0.591079 7.06726,-1.352863 9.73529,-2.076331 2.19992,-1.04408 3.98622,-2.663719 6.50402,-3.997714 2.59721,-1.639767 5.28081,-3.989777 8.14511,-4.452745 2.83758,-0.376998 5.45038,-3.126115 8.33408,-2.349153 2.53357,0.433827 5.11805,0.0087 7.5395,1.733555 2.76349,1.161172 5.34699,-0.419595 8.05233,0.01314 2.66346,0.936862 4.99944,-2.676129 7.4766,-2.500417 1.02771,0.639735 5.44289,2.89928 5.30299,4.908331 l 1.29102,73.962842 z" /><path
       d="m 62.85691,96.647882 3.5589,-4.2871 c 0.18313,-0.220407 0.21554,-0.528865 0.0854,-0.783842 -0.13236,-0.254989 -0.41217,-0.410024 -0.68876,-0.38409 l -4.97048,0.378685 c -0.19231,0.01459 -0.3722,0.106959 -0.49483,0.256601 l -4.00079,4.818136 c -0.24634,0.29657 -0.21231,0.73414 0.0756,0.98966 l 4.68414,4.156908 c 0.13074,0.11615 0.29875,0.1799 0.47378,0.1799 0.0183,0 0.0361,-5.5e-4 0.0546,-0.002 l 4.97046,-0.37814 c 0.28632,-0.0222 0.53104,-0.21339 0.62179,-0.48403 0.0929,-0.27226 0.0124,-0.57262 -0.20204,-0.76332 z"
       style="clip-rule:evenodd;fill:#37895f;fill-rule:nonzero;stroke-width:0.54020983;stroke-linejoin:round;stroke-miterlimit:2"
       id="path858-5" /><path
       d="m 73.81398,100.90745 c 0.13074,0.11667 0.29874,0.17988 0.47377,0.17988 0.0183,0 0.0361,-9e-4 0.0546,-0.002 l 4.97047,-0.37923 c 0.28631,-0.0216 0.53103,-0.21284 0.62178,-0.48402 0.0929,-0.272268 0.0124,-0.572088 -0.20204,-0.762238 l -4.16772,-3.69828 3.5589,-4.286025 c 0.18314,-0.220403 0.21554,-0.529404 0.0854,-0.783848 -0.13181,-0.255522 -0.40461,-0.412181 -0.68877,-0.38409 L 73.5499,90.68575 c -0.19232,0.01511 -0.37221,0.106415 -0.49483,0.256057 l -4.0008,4.818135 c -0.24633,0.29657 -0.2123,0.73469 0.0757,0.99074 z"
       style="clip-rule:evenodd;fill:#37895f;fill-rule:nonzero;stroke-width:0.54020983;stroke-linejoin:round;stroke-miterlimit:2"
       id="path860-7" /><path
       d="m 81.28671,109.95919 c 0.30251,3.48166 3.37576,6.07467 6.83959,5.7689 l 3.93975,-0.19662 5.81861,5.08121 c 0.13235,0.11614 0.29982,0.17665 0.47052,0.17665 0.10642,0 0.21339,-0.0249 0.31494,-0.074 0.25715,-0.12695 0.41488,-0.39705 0.39652,-0.68446 l -0.31171,-5.10713 c 3.12782,-0.62233 5.35888,-3.52001 5.07528,-6.76776 -0.30252,-3.48057 -3.38766,-6.06438 -6.85904,-5.76782 l -9.91826,0.70606 c -3.48111,0.30144 -6.06873,3.38119 -5.7662,6.86499"
       style="clip-rule:evenodd;fill:#37895f;fill-rule:nonzero;stroke-width:0.54020983;stroke-linejoin:round;stroke-miterlimit:2"
       id="path862-9" /><path
       d="m 92.04337,130.92096 c 1.11446,-1.28029 1.66276,-2.91281 1.54716,-4.59611 -0.11777,-1.68329 -0.88648,-3.22451 -2.16786,-4.33842 -1.28085,-1.11445 -2.91121,-1.66547 -4.60745,-1.54608 l -9.89557,0.84434 c -3.48489,0.24634 -6.12058,3.27908 -5.87965,6.76343 0.22527,3.25314 2.88094,5.76891 6.06603,5.8964 l 0.48618,5.09418 c 0.0265,0.28631 0.22311,0.5294 0.49861,0.61422 0.0702,0.0216 0.14047,0.0319 0.21122,0.0319 0.20852,0 0.41003,-0.0907 0.54779,-0.25552 l 4.95858,-5.92339 3.89653,-0.41651 c 1.68329,-0.11777 3.22397,-0.88648 4.33843,-2.16839"
       style="clip-rule:evenodd;fill:#37895f;fill-rule:nonzero;stroke-width:0.54020983;stroke-linejoin:round;stroke-miterlimit:2"
       id="path864-1" /><path
       d="m 115.94982,139.0468 -4.68471,-4.15691 c -0.14532,-0.12858 -0.34033,-0.19394 -0.52832,-0.17828 l -4.96939,0.37978 c -0.28685,0.0211 -0.53103,0.21283 -0.62178,0.48401 -0.0935,0.27173 -0.013,0.57155 0.2015,0.76225 l 4.16717,3.6972 -3.5589,4.2871 c -0.18204,0.22147 -0.215,0.5294 -0.0849,0.78438 0.12372,0.23824 0.36897,0.38625 0.6353,0.38625 0.0179,0 0.0362,-5.5e-4 0.0541,-0.003 l 4.96938,-0.37815 c 0.1934,-0.0152 0.37221,-0.10696 0.49592,-0.2566 l 4.00024,-4.81812 c 0.24635,-0.29658 0.21285,-0.73469 -0.0756,-0.99075"
       style="clip-rule:evenodd;fill:#37895f;fill-rule:nonzero;stroke-width:0.54020983;stroke-linejoin:round;stroke-miterlimit:2"
       id="path866-8" /><path
       d="m 98.55722,135.77529 c -0.14532,-0.12857 -0.34087,-0.19449 -0.52832,-0.17774 l -4.96939,0.37816 c -0.28686,0.022 -0.53104,0.21283 -0.62179,0.48402 -0.0935,0.27227 -0.013,0.57262 0.20149,0.76332 l 4.16719,3.69828 -3.55783,4.28603 c -0.18313,0.22093 -0.21608,0.52939 -0.0859,0.78382 0.12425,0.23878 0.36949,0.3868 0.63529,0.3868 0.0179,0 0.0361,-8e-4 0.0535,-0.003 l 4.96993,-0.37921 c 0.19285,-0.0152 0.37221,-0.10642 0.49538,-0.25607 l 4.0008,-4.81813 c 0.24632,-0.29656 0.21283,-0.73468 -0.0757,-0.99074 z"
       style="clip-rule:evenodd;fill:#37895f;fill-rule:nonzero;stroke-width:0.54020983;stroke-linejoin:round;stroke-miterlimit:2"
       id="path868-1" /><path
       style="fill:none;stroke:#37895f;stroke-width:2.83464575;stroke-linecap:butt;stroke-linejoin:miter;stroke-miterlimit:2;stroke-dasharray:none;stroke-opacity:1"
       d="M 48.84421,84.741518 48.2736,37.285599"
       id="path4551" /><path
       style="clip-rule:evenodd;fill:none;fill-rule:evenodd;stroke:#37895f;stroke-width:2.83464575;stroke-linecap:butt;stroke-linejoin:miter;stroke-miterlimit:2;stroke-dasharray:none;stroke-opacity:1"
       d="M 56.45237,84.789069 55.88176,37.903762"
       id="path4551-1" /><path
       style="clip-rule:evenodd;fill:none;fill-rule:evenodd;stroke:#37895f;stroke-width:2.83464575;stroke-linecap:butt;stroke-linejoin:miter;stroke-miterlimit:2;stroke-dasharray:none;stroke-opacity:1"
       d="M 64.44094,86.596008 63.20462,37.903761"
       id="path4551-9" /><path
       style="clip-rule:evenodd;fill:none;fill-rule:evenodd;stroke:#37895f;stroke-width:2.83464575;stroke-linecap:butt;stroke-linejoin:miter;stroke-miterlimit:2;stroke-dasharray:none;stroke-opacity:1"
       d="M 71.5736,84.693967 70.33728,38.28417"
       id="path4551-5" /><path
       style="clip-rule:evenodd;fill:none;fill-rule:evenodd;stroke:#37895f;stroke-width:2.83464575;stroke-linecap:butt;stroke-linejoin:miter;stroke-miterlimit:2;stroke-dasharray:none;stroke-opacity:1"
       d="M 78.61115,80.963213 77.66013,38.093965"
       id="path4551-3" /><path
       style="clip-rule:evenodd;fill:none;fill-rule:evenodd;stroke:#37895f;stroke-width:2.83464575;stroke-linecap:butt;stroke-linejoin:miter;stroke-miterlimit:2;stroke-dasharray:none;stroke-opacity:1"
       d="M 86.08878,76.709356 85.07809,37.713558"
       id="path4551-32" /><path
       style="clip-rule:evenodd;fill:none;fill-rule:evenodd;stroke:#37895f;stroke-width:2.83464575;stroke-linecap:butt;stroke-linejoin:miter;stroke-miterlimit:2;stroke-dasharray:none;stroke-opacity:1"
       d="M 93.16177,74.137641 92.59116,36.85764"
       id="path4551-98" /><path
       style="clip-rule:evenodd;fill:none;fill-rule:evenodd;stroke:#37895f;stroke-width:2.83464575;stroke-linecap:butt;stroke-linejoin:miter;stroke-miterlimit:2;stroke-dasharray:none;stroke-opacity:1"
       d="M 100.15992,73.971672 100.00911,38.379273"
       id="path4551-0" /><path
       style="clip-rule:evenodd;fill:none;fill-rule:evenodd;stroke:#37895f;stroke-width:2.83464575;stroke-linecap:butt;stroke-linejoin:miter;stroke-miterlimit:2;stroke-dasharray:none;stroke-opacity:1"
       d="m 107.90258,76.039681 -0.85592,-37.75551"
       id="path4551-8" /><path
       style="clip-rule:evenodd;fill:none;fill-rule:evenodd;stroke:#37895f;stroke-width:2.83464575;stroke-linecap:butt;stroke-linejoin:miter;stroke-miterlimit:2;stroke-dasharray:none;stroke-opacity:1"
       d="m 115.32054,75.088661 -0.95102,-37.1849"
       id="path4551-03" /><path
       style="clip-rule:evenodd;fill:none;fill-rule:evenodd;stroke:#37895f;stroke-width:2.83464575;stroke-linecap:butt;stroke-linejoin:miter;stroke-miterlimit:2;stroke-dasharray:none;stroke-opacity:1"
       d="m 120.88822,72.983578 0.61396,-35.27002"
       id="path4551-6" /></g></svg>