<svg width="16" height="16" viewBox="0 0 16 16" xmlns="http://www.w3.org/2000/svg" fill="currentColor"><path fill-rule="evenodd" clip-rule="evenodd" d="m 6.7464455,10.794646 0.982868,2.5923 H 8.9328029 L 5.3587373,4.1186441 H 4.2335685 L 0.68487425,13.386946 H 1.8927761 l 0.9244034,-2.5923 z M 4.8888138,5.7214581 4.9373505,5.8703775 6.3912451,9.8128808 H 3.1723798 L 4.6141403,5.8703775 4.662677,5.7214581 4.704595,5.5493734 4.7398944,5.3817012 4.7630597,5.2427098 h 0.025371 l 0.026475,0.1389914 0.03199,0.1676722 z M 13.696018,12.352232 V 13.38474 H 14.755 V 9.0804179 c 0,-0.7931337 -0.198559,-1.4031517 -0.594575,-1.8322602 -0.396015,-0.4291085 -0.980661,-0.6431112 -1.751733,-0.6431112 -0.219518,0 -0.442346,0.020959 -0.668483,0.061774 a 5.3776451,5.3776451 0 0 0 -1.189149,0.3596128 2.295565,2.295565 0 0 0 -0.378365,0.207384 v 1.085457 c 0.293426,-0.2537145 0.624358,-0.4533768 0.997208,-0.5956776 a 3.2287933,3.2287933 0 0 1 1.160469,-0.2128996 c 0.207384,0 0.394912,0.030887 0.565893,0.093764 a 1.0810446,1.0810446 0 0 1 0.43683,0.2945295 c 0.120239,0.1334759 0.2129,0.3077667 0.277983,0.5206663 0.06508,0.2128996 0.09707,0.4710266 0.09707,0.7721747 l -1.997726,0.2779829 c -0.379469,0.051846 -0.705989,0.1389914 -0.979559,0.2614363 a 2.1477487,2.1477487 0 0 0 -0.678411,0.4622022 1.7649707,1.7649707 0 0 0 -0.3971182,0.639801 2.3540297,2.3540297 0 0 0 -0.1290635,0.79534 c 0,0.271365 0.04633,0.523976 0.1367852,0.758938 0.090455,0.234961 0.2239307,0.437933 0.4004275,0.607812 0.176497,0.169878 0.397119,0.304457 0.659658,0.403737 0.262539,0.09928 0.565894,0.148919 0.911166,0.148919 0.443449,0 0.838361,-0.101486 1.18584,-0.306664 0.347478,-0.205178 0.630977,-0.50081 0.850495,-0.889104 z m -2.347411,-1.922715 c 0.194146,-0.0706 0.442345,-0.125754 0.743493,-0.164362 l 1.616052,-0.226137 v 0.671792 c 0,0.271364 -0.04523,0.523975 -0.135682,0.758937 a 1.9050652,1.9050652 0 0 1 -0.378366,0.61443 1.7351868,1.7351868 0 0 1 -0.578028,0.410356 1.7980639,1.7980639 0 0 1 -0.736875,0.14892 c -0.206281,0 -0.389397,-0.02758 -0.546038,-0.08384 a 1.1361999,1.1361999 0 0 1 -0.393809,-0.232755 0.98838359,0.98838359 0 0 1 -0.242683,-0.348582 1.1086222,1.1086222 0 0 1 -0.08384,-0.433521 1.7649707,1.7649707 0 0 1 0.06067,-0.485367 0.81519584,0.81519584 0 0 1 0.222828,-0.368437 1.2796038,1.2796038 0 0 1 0.452274,-0.261437 z"/></svg>